{"title":"Milk.2008.SWESUB.DVDRip.XviD.-Zen_Bud","uid":5734677,"size":1469197718,"categoryP":"video","categoryS":"movies","magnet":"?xt=urn:btih:41ac31230db4f71f2d4798a09624bfe98c2a631c&amp;dn=Milk.2008.SWESUB.DVDRip.XviD.-Zen_Bud&amp;tr=udp%3A%2F%2Ftracker.openbittorrent.com%3A80&amp;tr=udp%3A%2F%2Fopen.demonii.com%3A1337&amp;tr=udp%3A%2F%2Ftracker.coppersurfer.tk%3A6969&amp;tr=udp%3A%2F%2Fexodus.desync.com%3A6969","seeders":0,"leechers":1,"uploader":null,"files":1,"time":1280764233,"description":"General\nComplete name                    : Milk.2008.avi\nFormat                           : AVI\nFile size                        : 1.37 GiB\nDuration                         : 2h 2mn\nOverall bit rate                 : 1 596 Kbps\n\nVideo\nID                               : 0\nFormat                           : MPEG-4 Visual\nCodec ID/Hint                    : XviD\nDuration                         : 2h 2mn\nBit rate                         : 1 471 Kbps\nWidth                            : 704 pixels\nHeight                           : 552 pixels\nDisplay aspect ratio             : 1.855\nStream size                      : 1.26 GiB (92%)\nWriting library                  : XviD 1.1.2 (UTC 2006-11-01)\n\nAudio\n\nFormat                           : MPEG Audio\nCodec ID/Hint                    : MP3\nDuration                         : 2h 2mn\nBit rate                         : 112 Kbps\nChannel(s)                       : 2 channels\nSampling rate                    : 48.0 KHz\nStream size                      : 98.3 MiB (7%)","torrent":{"xt":"urn:btih:41ac31230db4f71f2d4798a09624bfe98c2a631c","amp;dn":"Milk.2008.SWESUB.DVDRip.XviD.-Zen_Bud","amp;tr":["udp%3A%2F%2Ftracker.openbittorrent.com%3A80","udp%3A%2F%2Fopen.demonii.com%3A1337","udp%3A%2F%2Ftracker.coppersurfer.tk%3A6969","udp%3A%2F%2Fexodus.desync.com%3A6969"],"infoHash":"41ac31230db4f71f2d4798a09624bfe98c2a631c","infoHashBuffer":{"type":"Buffer","data":[65,172,49,35,13,180,247,31,45,71,152,160,150,36,191,233,140,42,99,28]},"announce":[],"urlList":[]}}